<svg id="Layer_1" data-name="Layer 1" xmlns="http://www.w3.org/2000/svg" viewBox="0 0 693 490.32">
  <defs>
    <clipPath id="clip-path" transform="translate(-4 -4.68)">
      <path class="cls-1" d="M188.37 330.6H515.2v40.48H188.37z"/>
    </clipPath>
    <clipPath id="clip-path-2" transform="translate(-4 -4.68)">
      <path class="cls-2" d="M208.76 144.6c-2.51 6-.19 13.22 5.19 16.05s11.79.21 14.31-5.83.19-13.22-5.19-16-11.79-.26-14.31 5.78z"/>
    </clipPath>
    <clipPath id="clip-path-3" transform="translate(-4 -4.68)">
      <path class="cls-2" d="M491.14 325.33a13.27 13.27 0 001.53 17.19c4.65 4.27 11.51 3.5 15.31-1.71a13.26 13.26 0 00-1.52-17.19c-4.65-4.27-11.46-3.5-15.32 1.71z"/>
    </clipPath>
    <clipPath id="clip-path-4" transform="translate(-4 -4.68)">
      <path class="cls-1" d="M234.6 487l19.68-57.1a2.75 2.75 0 015.31 0l19.69 57.1z"/>
    </clipPath>
    <clipPath id="clip-path-5" transform="translate(-4 -4.68)">
      <path class="cls-1" d="M520.48 487.14l19.69-57.09a2.75 2.75 0 015.31 0l19.69 57.09z"/>
    </clipPath>
    <style>
      .cls-1{fill:#f5d100}.cls-2{fill:#eb8175}.cls-4{fill:#fc9d2b}.cls-6{fill:#bcbcbc}.cls-9{fill:#151247}.cls-10{fill:#5571e9;opacity:.16}.cls-12{fill:#fff}.cls-13{fill:#14103d}.cls-14{fill:#231c61}.cls-15{fill:#e1ad9d}.cls-16{fill:#ea2877}.cls-17{fill:#f04a8a}.cls-18{fill:#091218}.cls-20{fill:#e16c5f}.cls-29,.cls-32,.cls-35,.cls-41{fill:none}.cls-29,.cls-32{stroke-miterlimit:10}.cls-35,.cls-41{stroke-linecap:round;stroke-linejoin:round}.cls-24{fill:#334fbe}.cls-29,.cls-35{stroke:#4c4d4f;stroke-width:2.65px}.cls-30{fill:#2c2c2d}.cls-32{stroke:#231c61;stroke-width:2.16px}.cls-37{fill:#fafafa}.cls-38{fill:#e8c400}.cls-41{stroke:#0d720d;stroke-width:1.14px}
    </style>
  </defs>
  <path d="M690.07 354.1c7.43-27 9.17-55.76 3.84-83.4-8.33-43.23-35.17-95.57-112.63-118.15C434.63 109.8 383.72-15.24 246.54 24.58c0 0-73.61 15-108.45 151.69s-171.35 139-124.35 258C21.42 453.74 42.11 475 71.81 495l556.28-2.1c38.45-51.9 50.41-96.73 61.98-138.8z" transform="translate(-4 -4.68)" fill="#f9cc9b"/>
  <path class="cls-4" d="M558.81 256.35h-20.87v-25.61c0-12.87-8-23.61-18.69-26.4v-31.8h-7.68v31.19c-12.32 1.25-22 12.86-22 27v26.37h-20.74v29.4h-1.4v54.61l-37.74-.3v-65.28h-43.24v47.84h-30.34v46.47h-36.67v123h300.74V337.73h-61.42z" transform="translate(-4 -4.68)"/>
  <path class="cls-4" d="M124.14 319.29v-61.15h20.43v-32.71h7.68v32.71h18.82v61.15h21.12v36.63h33.65v-124.8h70.27v257.05H98.15V319.29h25.99z"/>
  <path d="M512 492.23l-320.24.28c-12.13 0-22-11-22-24.62l364.16-.32c.08 13.61-9.79 24.65-21.92 24.66z" transform="translate(-4 -4.68)" fill="#8d8d8e"/>
  <path class="cls-6" d="M512 483.74l-320.24.26c-9.47 0-17.52-6.71-20.61-16.14h-1.37c0 13.61 9.85 24.63 22 24.62l320.22-.25c12.13 0 22-11.05 21.94-24.66h-1.36c-3.08 9.43-11.12 16.17-20.58 16.17z" transform="translate(-4 -4.68)"/>
  <path d="M372.56 476h-41.38c-4.06 0-7.35-3.68-7.36-8.24l56.08-.05c0 4.55-3.28 8.29-7.34 8.29z" transform="translate(-4 -4.68)" fill="#69696b"/>
  <path class="cls-6" d="M515.2 467.58l-326.68.29-.15-221.25c0-12.7 9.15-23 20.47-23l285.71-.25c11.31 0 20.49 10.27 20.5 23z" transform="translate(-4 -4.68)"/>
  <path fill="#312c76" d="M201.45 237.93H494.1v206.01H201.45z"/>
  <path class="cls-9" d="M201.52 424.24h292.65v19.69H201.52zM201.38 237.93h292.65v9.78H201.38z"/>
  <path class="cls-10" d="M298.98 237.97l-97.52 109.61.06 96.48h.21L385.18 237.9l-86.2.07zM239.31 444.04l43.22-.05 183.44-206.16-43.21.04-183.45 206.17zM459.75 443.84l34.4-38.66-.05-73.14-103.25 111.84 68.9-.04z"/>
  <path class="cls-1" d="M184.37 325.92H511.2v40.48H184.37z"/>
  <g clip-path="url(#clip-path)">
    <path class="cls-12" d="M225.14 380.61h-28.12l24.21-62.14h28.12l-24.21 62.14zM285.11 380.61h-28.12l24.21-62.14h28.12l-24.21 62.14zM345.08 380.61h-28.12l24.21-62.14h28.12l-24.21 62.14zM405.05 380.61h-28.12l24.21-62.14h28.12l-24.21 62.14zM465.02 380.61H436.9l24.21-62.14h28.12l-24.21 62.14z"/>
  </g>
  <path class="cls-13" d="M162.13 260.7l-6.39.27-3.74-1.33a3.85 3.85 0 00-4.6 1.8l-.47.78 18.68 11.58 3.61-8.69z" transform="translate(-4 -4.68)"/>
  <path class="cls-13" d="M165.61 274l-18.82-11.67.66-1.33a.46.46 0 01.66-.22l18.4 11.41-.9 1.81" transform="translate(-4 -4.68)"/>
  <path class="cls-2" d="M165.22 260.43l4.93-9.58-4.93-9.89-7.09 15.06 7.09 4.41z"/>
  <path class="cls-13" d="M207.88 210s-26.62-8.57-29.18-.51-18.09 43.75-18.09 43.75L172.2 260l17.38-33.88 23.42-2.27zM186.24 271.57l-5.24 3.72-3.85.88a4.41 4.41 0 00-3.24 4.07l-.07.94h21.33l-.59-9.57z" transform="translate(-4 -4.68)"/>
  <path class="cls-13" d="M195.29 281.3h-21.51v-1.53a.52.52 0 01.49-.54h21v2.07" transform="translate(-4 -4.68)"/>
  <path class="cls-2" d="M190.61 266.9l.68-16.05-8.5-1.08-.55 17.12 8.37.01z"/>
  <path class="cls-14" d="M211.47 208.62l-25.08 1.28s-3.61.22-3.37 9.7.22 47.61.22 47.61l12 .47 2.31-39.94 25.11-.35a13.55 13.55 0 0012.34-8.94 12.21 12.21 0 00.69-6.88z" transform="translate(-4 -4.68)"/>
  <path class="cls-15" d="M187.67 202.94c0 2.67-1.61 3.08-4 3.08s-4.63-.39-4.64-3.06a4.34 4.34 0 118.63 0z" transform="translate(-4 -4.68)"/>
  <path class="cls-15" d="M190.69 205.67h-5a2.52 2.52 0 01-2.37-2.65 2.54 2.54 0 012.36-2.66h5a2.54 2.54 0 012.38 2.65 2.53 2.53 0 01-2.37 2.66z" transform="translate(-4 -4.68)"/>
  <path class="cls-16" d="M190.5 206.24l-1.66-9.15 20.48-2.5 4.1-26.86c.41-2.44 3.56-5.47 5.74-5l-.63-.2a5.43 5.43 0 013.76 5.74l-4 32.12a4.3 4.3 0 01-3 3.53z" transform="translate(-4 -4.68)"/>
  <path class="cls-17" d="M231.42 163.32a4.06 4.06 0 011.23.32l.21.09c3.51 1.54 5.89 5.77 6 9.74l-3.2 38.1c-21.22-.21-24.24-2.95-24.24-2.95l1.69-39c.26-3.68 1.76-7.14 5.49-7.49z" transform="translate(-4 -4.68)"/>
  <path class="cls-2" d="M208.05 205.94c.16 2.66-1.43 3.19-3.8 3.37s-4.64-.05-4.8-2.71a4.68 4.68 0 014-5.16 4.52 4.52 0 014.6 4.5z" transform="translate(-4 -4.68)"/>
  <path class="cls-2" d="M211.23 208.44l-5 .38a2.48 2.48 0 01-2.52-2.47 2.58 2.58 0 012.2-2.83l5-.38a2.48 2.48 0 012.52 2.46 2.59 2.59 0 01-2.2 2.84z" transform="translate(-4 -4.68)"/>
  <path class="cls-17" d="M211.07 209l-2.2-9 22.32-4-1.27-23.29c.27-2.46 2.68-5.23 4.88-4.93a5.33 5.33 0 014.09 5.44l1.61 27.91a4.4 4.4 0 01-2.78 3.74z" transform="translate(-4 -4.68)"/>
  <path class="cls-18" d="M172.45 178.07l24.36 2.58a1.81 1.81 0 011.53 1.68l2.55 24.67a1.81 1.81 0 01-1.85 2.12l-24.76-2.62a1.8 1.8 0 01-1.53-1.71l-2.15-24.59a1.81 1.81 0 011.85-2.13z" transform="translate(-4 -4.68)"/>
  <path d="M171.05 177.92l24.35 2.58a1.83 1.83 0 011.54 1.68l2.55 24.63a1.82 1.82 0 01-1.85 2.13l-24.76-2.62a1.83 1.83 0 01-1.54-1.72l-2.15-24.6a1.83 1.83 0 011.86-2.08z" transform="translate(-4 -4.68)" fill="#1b2934"/>
  <path class="cls-18" d="M200.22 207.13l16.64 1.76a1 1 0 01.83 1.13 1 1 0 01-1 .93L199 209.16z" transform="translate(-4 -4.68)"/>
  <path class="cls-12" d="M185 192.86a2.77 2.77 0 01-2.91 2.7 2.91 2.91 0 01-2.4-3.26 2.76 2.76 0 012.9-2.69 2.91 2.91 0 012.41 3.25z" transform="translate(-4 -4.68)"/>
  <path class="cls-16" d="M225.15 173.39l.55 17.51-20.83 4.44 18.35-6.44 1.93-15.51z"/>
  <path class="cls-2" d="M218.1 161l1.39 4.19a3.75 3.75 0 003.19 2.66c2.72.21 4.68-2.89 3.61-5.7l-2.44-6.44z" transform="translate(-4 -4.68)"/>
  <path class="cls-20" d="M219.34 164.73s6.86-1.45 5.85-8.18-7.46-1.48-7.46-1.48l.63 6.71z" transform="translate(-4 -4.68)"/>
  <path class="cls-2" d="M208.76 144.6c-2.51 6-.19 13.22 5.19 16.05s11.79.21 14.31-5.83.19-13.22-5.19-16-11.79-.26-14.31 5.78z" transform="translate(-4 -4.68)"/>
  <g clip-path="url(#clip-path-2)">
    <path class="cls-14" d="M222.5 152.09s-1.7 9.67 4.64 9.88 2.86-18.14 2.86-18.14l-10-11.32-15.34 4.23 1.52 11.14s2.44 1.45 15.63-1z" transform="translate(-4 -4.68)"/>
    <path class="cls-14" d="M212.24 139.84l5.04 8.28 4.34-5.39-9.38-2.89z"/>
  </g>
  <path class="cls-2" d="M220.81 149.84a3.59 3.59 0 001.46 4.54 2.92 2.92 0 004-1.64 3.61 3.61 0 00-1.47-4.54 2.91 2.91 0 00-3.99 1.64z" transform="translate(-4 -4.68)"/>
  <path class="cls-1" d="M206.67 147.69s-2.33-9.51 3.17-15.4a10.23 10.23 0 0116 .85c1.89 2.53 3.41 6.34 3.55 12.08z" transform="translate(-4 -4.68)"/>
  <path d="M203.84 142.85l-.07-5.94a2.69 2.69 0 012.38-2.82h0a2.59 2.59 0 012.59 2.51l.53 5.93" stroke-width=".28" stroke-miterlimit="10" stroke="#f1ab00" fill="none"/>
  <path stroke-width="1.12" stroke-linecap="round" stroke-linejoin="round" stroke="#fff" fill="none" d="M225.36 140.54l-24.69 2.66"/>
  <path class="cls-2" d="M528.42 461.55l5.53 6.02-6.31 3.81-5.4-5.95 6.18-3.88z"/>
  <path class="cls-13" d="M493.46 421.28l3.7 18.37a30.93 30.93 0 004.21 10.45l24.35 24.54 9.63-8.8-20.79-24.7-7.62-32.57zM531.46 475.88l-2 7.13-2.28 3.56a5 5 0 00.09 5.44l.52.74 15.53-16.24-6.2-6.51z" transform="translate(-4 -4.68)"/>
  <path class="cls-13" d="M539.49 471.88l-15.66 16.37-1.25-1.51 15.65-16.37 1.26 1.51"/>
  <path class="cls-2" d="M475.19 472.72l-2.08 7.78-7.13-2.14 2.08-7.64 7.13 2z"/>
  <path class="cls-14" d="M488.74 400.8l-20 75.74 12.6 3.53 11.25-38 13.81-24.84a34.71 34.71 0 002-3.48 16.24 16.24 0 001.58-7.23l-.05-4.93z" transform="translate(-4 -4.68)"/>
  <path class="cls-13" d="M470.39 482.28l-6.3 2.61-3.93.15a4.21 4.21 0 00-3.8 3.44l-.21.92 21.1 3.89.81-9.57z" transform="translate(-4 -4.68)"/>
  <path class="cls-13" d="M473.31 488.79l-21.27-3.93.3-2.05 21.27 3.93-.3 2.05"/>
  <path class="cls-24" d="M456.87 319.19l-8.07 14.13 3.87 3.11 8.35-14.95-4.15-2.29z"/>
  <path d="M450.39 300.45A36.07 36.07 0 00473 324.86a1.63 1.63 0 011 1.34c.24 2 .24 6.42-3.94 7.72a1.35 1.35 0 01-1.18-.22c-2.89-2-17.11-11.35-30.91-8.66z" transform="translate(-4 -4.68)" fill="#4265d1"/>
  <path class="cls-24" d="M450.39 300.45S446.93 317.92 438 325c0 0 1.28-15.28 12.39-24.55z" transform="translate(-4 -4.68)"/>
  <path class="cls-2" d="M450.17 337.07c-.58 3.22 1.77 7.14 4.64 7.8s5.66-1.42 6.25-4.63-1.78-7.14-4.64-7.8-5.66 1.42-6.25 4.63z" transform="translate(-4 -4.68)"/>
  <path class="cls-2" d="M461.33 341.84l-5.59-6.56-3.66 5.04 9.25 7.61"/>
  <path class="cls-17" d="M464.45 340.45l-5.92 9.86 16.17 16.61a7.49 7.49 0 003 .33l21.35-3.1c3.37-.18 6-3.39 5.81-7.16-.16-3.78.48-9.24-2.88-9.06l-24.81 5.71z" transform="translate(-4 -4.68)"/>
  <path class="cls-17" d="M512.34 363.09a14.44 14.44 0 00-5.51-13.26c-1.78-1.28-3.54-2.15-4.81-1.9-4.26.8-8.64 3-10.51 9.42-3.19 11-4.1 43.4-4.1 43.4l22.89.87z" transform="translate(-4 -4.68)"/>
  <path class="cls-16" d="M499.89 359.23l6.88 28.38 1.39-24.08-8.27-4.3z"/>
  <path class="cls-2" d="M531.94 419.9c2.16-2.2 2.32-6.93.35-9.36a4.9 4.9 0 00-7.48-.4c-2.16 2.21-2.32 6.94-.35 9.36a4.9 4.9 0 007.48.4z" transform="translate(-4 -4.68)"/>
  <path class="cls-2" d="M517.55 395.01l4.18 11.56 5.6-1.65-3.46-12.27"/>
  <path class="cls-17" d="M521.82 408.6l11.46-2.82-7.77-29.78a10 10 0 00-1.37-3.07L509.87 353c-1.93-3.1-5.18-2.55-7.94-.38a7.39 7.39 0 00-1.52 9.53l13.75 18.54z" transform="translate(-4 -4.68)"/>
  <path class="cls-2" d="M496.66 344l.44 4.5a4.07 4.07 0 002.52 3.5c2.63 1 5.24-1.52 4.81-4.58l-1-7z" transform="translate(-4 -4.68)"/>
  <path class="cls-20" d="M497.05 348s7.07-.26 7.57-7.14-7-2.78-7-2.78l-.88 6.76z" transform="translate(-4 -4.68)"/>
  <path class="cls-2" d="M491.14 325.33a13.27 13.27 0 001.53 17.19c4.65 4.27 11.51 3.5 15.31-1.71a13.26 13.26 0 00-1.52-17.19c-4.65-4.27-11.46-3.5-15.32 1.71z" transform="translate(-4 -4.68)"/>
  <g clip-path="url(#clip-path-3)">
    <path class="cls-14" d="M503 336.52s-3.81 9 2.35 11 6.86-17 6.86-17l-7.32-13.9-16-.14-1 11.34s2.07 2.1 15.54 3.4z" transform="translate(-4 -4.68)"/>
    <path class="cls-14" d="M494.49 322.68l3.1 9.51 5.46-4.06-8.56-5.45z"/>
  </g>
  <path class="cls-2" d="M501.79 333.85a3.73 3.73 0 00.43 4.85 2.86 2.86 0 004.33-.48 3.75 3.75 0 00-.44-4.86 2.84 2.84 0 00-4.32.49z" transform="translate(-4 -4.68)"/>
  <path class="cls-1" d="M488.34 328.83s-.53-10 6-14.5c5.39-3.74 12.67-1.7 15.65 4.58 1.4 2.95 2.2 7.08 1.27 12.78z" transform="translate(-4 -4.68)"/>
  <path d="M485.53 324.32l1-5.89a2.56 2.56 0 012.87-2.25h0a2.79 2.79 0 012.1 3.1l-.57 6" stroke-width=".28" stroke-miterlimit="10" stroke="#f1ab00" fill="none"/>
  <path stroke-width="1.13" stroke-linecap="round" stroke-linejoin="round" stroke="#fff" fill="none" d="M507.26 327.02l-24.93-3.15"/>
  <path class="cls-29" d="M581.15 399.42l-25.79 28.53M581.15 368.92l-25.79 28.54M581.15 338.43l-25.79 28.54M581.15 307.94l-25.79 28.54M581.15 277.45l-25.79 28.54M581.15 246.96l-25.79 28.53M581.15 216.47L555.36 245M581.15 185.98l-25.79 28.53M581.15 155.49l-25.79 28.53M581.15 125l-25.79 28.53M581.15 94.51l-25.79 28.53M555.36 397.46h25.79M555.36 366.97h25.79M555.36 336.48h25.79M555.36 305.99h25.79M555.36 275.49h25.79M555.36 245h25.79M555.36 214.51h25.79M555.36 184.02h25.79M555.36 153.53h25.79M555.36 123.04h25.79M555.36 436.21V99.38M581.15 436.21V99.38"/>
  <path class="cls-30" d="M542.06 427.95h51.37v59.89h-51.37z"/>
  <rect x="545.8" y="42.35" width="44" height="57.03" rx="4.3" fill="#4c4d4f"/>
  <path class="cls-30" d="M549.81 56.1h20.52a3.26 3.26 0 013.26 3.26v20.17a3.26 3.26 0 01-3.26 3.26h-20.52V56.1z"/>
  <path class="cls-32" d="M385.18 102.5l20.64 67.26M370.83 94.51l-40.24 60.98"/>
  <path class="cls-1" d="M382.73 123.07l49.81 73.08a8.35 8.35 0 01-1.28 10.8l-65.14 55.89a6.39 6.39 0 01-9.62-1.44l-49.81-73.09a8.34 8.34 0 011.31-10.79l65.13-55.89a6.37 6.37 0 019.6 1.44z" transform="translate(-4 -4.68)"/>
  <path d="M376.35 130.96l40.75 59.8a6.83 6.83 0 01-1.05 8.83l-53.29 45.73a5.22 5.22 0 01-7.87-1.18l-40.76-59.82a6.83 6.83 0 011.05-8.83l53.3-45.73a5.23 5.23 0 017.87 1.2z" stroke-width="1.11" stroke="#231c61" stroke-miterlimit="10" fill="none"/>
  <ellipse class="cls-14" cx="379.29" cy="88.81" rx="17.25" ry="19.36"/>
  <path d="M395.49 93.49c0 7.56-5.46 13.68-12.2 13.68s-12.19-6.12-12.19-13.68 5.46-13.69 12.19-13.69 12.2 6.13 12.2 13.69z" transform="translate(-4 -4.68)" fill="#373482"/>
  <path class="cls-29" d="M446.94 1.32v41.03M414.15 1.32v41.03M479.62 1.32v41.03M515.93 1.32v41.03M549.81 1.32v41.03M584.92 1.32v41.03M619.42 1.32v41.03M412.44 42.35l34.5-41.03M446.94 42.35l34.49-41.03M481.43 42.35l34.5-41.03M515.93 42.35l34.5-41.03M550.43 42.35l34.49-41.03M584.92 42.35l34.5-41.03"/>
  <path class="cls-35" d="M379.3 42.35h281.25L622.68 1.32H408.39L379.3 42.35zM379.29 42.35v46.46"/>
  <path class="cls-1" d="M234.6 487l19.68-57.1a2.75 2.75 0 015.31 0l19.69 57.1z" transform="translate(-4 -4.68)"/>
  <g clip-path="url(#clip-path-4)">
    <path class="cls-37" d="M235.16 437.47h34.96v12.12h-34.96zM233.25 460.37h39.54v12.12h-39.54z"/>
  </g>
  <path class="cls-38" d="M227 482.29h52.11v4.81H227z"/>
  <path class="cls-1" d="M520.48 487.14l19.69-57.09a2.75 2.75 0 015.31 0l19.69 57.09z" transform="translate(-4 -4.68)"/>
  <g clip-path="url(#clip-path-5)">
    <path class="cls-37" d="M521.04 437.65H556v12.12h-34.96zM519.13 460.55h39.54v12.12h-39.54z"/>
  </g>
  <path class="cls-38" d="M512.88 482.47h52.11v4.81h-52.11z"/>
  <ellipse cx="123.66" cy="386.86" rx="40.89" ry="45.88" fill="#5ab749"/>
  <path class="cls-41" d="M123.66 370.51V487.1M107.76 372.88l15.9 20.01"/>
  <path class="cls-41" d="M141.76 396.46c-1.13 1.28-14.1 16.43-14.1 16.43" transform="translate(-4 -4.68)"/>
  <path stroke="#2c2c2d" stroke-width="1.14" stroke-linecap="round" stroke-linejoin="round" fill="none" d="M.6 488.22h685.81"/>
  <g id="DNA_molecule" data-name="DNA molecule">
    <path d="M346.51 169.24a12.75 12.75 0 00-8.12 11.4l-.3 8a5.6 5.6 0 01-2.35 4.36 12.74 12.74 0 008.12-11.39l.3-8a5.62 5.62 0 012.35-4.37z" transform="translate(-4 -4.68)" fill="#25ac9b"/>
    <path class="cls-17" d="M335.75 193a12.72 12.72 0 01-5.09.85l-6.75-.25a2.75 2.75 0 11.21-5.5h1l5.75.21 7.22.27a5.64 5.64 0 01-2.34 4.42z" transform="translate(-4 -4.68)"/>
    <path d="M342.63 186.65a12.76 12.76 0 01-6.89 6.39 5.6 5.6 0 002.35-4.36 5.66 5.66 0 004.54-2.03z" transform="translate(-4 -4.68)" fill="#2e3959"/>
    <path d="M346.5 169.25a12.55 12.55 0 015.09-.86l6.33.24a2.75 2.75 0 01-.2 5.5h-1l-5.33-.2-7.22-.27a5.62 5.62 0 012.33-4.41z" transform="translate(-4 -4.68)" fill="#287cbc"/>
    <path d="M339.61 175.64a12.86 12.86 0 016.9-6.4 5.62 5.62 0 00-2.35 4.37 5.62 5.62 0 00-4.55 2.03z" transform="translate(-4 -4.68)" fill="#075681"/>
    <path d="M353.28 176.54a12.76 12.76 0 01-12 7.25l-8-.3a5.64 5.64 0 00-4.53 2 12.75 12.75 0 0112-7.24l8 .3a5.61 5.61 0 004.53-2.01z" transform="translate(-4 -4.68)" fill="#e94b86"/>
    <path d="M338.39 180.64l-.11 3 3 .11a12.59 12.59 0 002.31-.13 12 12 0 00.24-2l.12-3.27-3.27-.12a11.42 11.42 0 00-2 .09 13.27 13.27 0 00-.29 2.3z" transform="translate(-4 -4.68)" fill="#2b3b5c"/>
    <path d="M328.76 185.47a12.58 12.58 0 00-1.23 5l-.26 6.75a2.75 2.75 0 105.5.21v-1l.22-5.74.27-7.23a5.67 5.67 0 00-4.5 2.01z" transform="translate(-4 -4.68)" fill="#ecb004"/>
    <path d="M330.62 193.87a12.42 12.42 0 002.29-.12l.12-3 .08-2.29-2.29-.09-3-.11a12.27 12.27 0 00-.3 2.28l-.12 3.21z" transform="translate(-4 -4.68)" fill="#ca2300"/>
    <path d="M335.63 179.1a12.82 12.82 0 00-6.89 6.39 5.64 5.64 0 014.53-2 5.64 5.64 0 012.36-4.39z" transform="translate(-4 -4.68)" fill="#c62101"/>
    <path d="M353.27 176.55a12.76 12.76 0 001.24-5l.24-6.34a2.75 2.75 0 10-5.5-.2v1l-.2 5.32-.27 7.23a5.6 5.6 0 004.49-2.01z" transform="translate(-4 -4.68)" fill="#fe7702"/>
    <path d="M351.38 173.89l2.8.11a13.36 13.36 0 00.33-2.46l.11-3-3-.11a12.77 12.77 0 00-2.48.15l-.1 2.79-.09 2.47z" transform="translate(-4 -4.68)" fill="#295c00"/>
    <path d="M346.38 182.94a12.83 12.83 0 006.9-6.4 5.61 5.61 0 01-4.53 2 5.63 5.63 0 01-2.37 4.4z" transform="translate(-4 -4.68)" fill="#b52a8f"/>
  </g>
  <text transform="matrix(1 .09 -.09 1 353.15 174.98)" font-size="11.55" font-family="Copperplate-Bold,Copperplate" font-weight="700">
    Genome<tspan font-family="Copperplate-Light,Copperplate" font-weight="300"><tspan x="-17.66" y="13.86">Technologies</tspan></tspan>
  </text>
  <text transform="matrix(1 .09 -.09 1 348.15 196.95)" font-size="4.09" fill="#847b7b" font-family="Copperplate-Light,Copperplate" font-weight="300">
    Personalize Healthcare
  </text>
</svg>
