<svg id="Layer_1" data-name="Layer 1" xmlns="http://www.w3.org/2000/svg" viewBox="0 0 551 226.31"><defs><style>.cls-1{fill:#25ac9b;}.cls-2{fill:#f04a8a;}.cls-3{fill:#2e3959;}.cls-4{fill:#287cbc;}.cls-5{fill:#075681;}.cls-6{fill:#e94b86;}.cls-7{fill:#2b3b5c;}.cls-8{fill:#ecb004;}.cls-9{fill:#ca2300;}.cls-10{fill:#c62101;}.cls-11{fill:#fe7702;}.cls-12{fill:#295c00;}.cls-13{fill:#b52a8f;}.cls-14{font-size:65px;font-family:Copperplate-Bold, Copperplate;font-weight:700;}.cls-15,.cls-16{font-family:Copperplate-Light, Copperplate;font-weight:300;}.cls-16{font-size:23px;fill:#847b7b;}</style></defs><g id="DNA_molecule" data-name="DNA molecule"><path class="cls-1" d="M197.63,46.37a71.77,71.77,0,0,0-39.57,68.05h0l2.48,45.13h0a.17.17,0,0,0,0,.07,31.62,31.62,0,0,1-10.89,25.66,71.74,71.74,0,0,0,39.58-68h0L186.76,72.1h0s0,0,0-.06A31.64,31.64,0,0,1,197.63,46.37Z" transform="translate(-67.38 -4.82)"/><path class="cls-2" d="M149.73,185.26a71.12,71.12,0,0,1-28.06,7.44l-37.95,2.09A15.49,15.49,0,1,1,82,163.86l5.67-.31L120,161.78l40.62-2.24v.07A31.62,31.62,0,0,1,149.73,185.26Z" transform="translate(-67.38 -4.82)"/><path class="cls-3" d="M185,145.87a72.06,72.06,0,0,1-35.29,39.41,31.62,31.62,0,0,0,10.89-25.66A31.65,31.65,0,0,0,185,145.87Z" transform="translate(-67.38 -4.82)"/><path class="cls-4" d="M197.62,46.39a71.2,71.2,0,0,1,28-7.45L261.28,37A15.48,15.48,0,1,1,263,67.91l-5.67.31-29.94,1.65L186.76,72.1V72A31.59,31.59,0,0,1,197.62,46.39Z" transform="translate(-67.38 -4.82)"/><path class="cls-5" d="M162.35,85.78a72.12,72.12,0,0,1,35.28-39.41A31.64,31.64,0,0,0,186.75,72,31.62,31.62,0,0,0,162.35,85.78Z" transform="translate(-67.38 -4.82)"/><path class="cls-6" d="M239.37,83.76a71.77,71.77,0,0,1-63.3,46.79v0L130.93,133h-.06a31.61,31.61,0,0,0-24.32,13.63,71.75,71.75,0,0,1,63.29-46.79v0L215,97.39h.07A31.63,31.63,0,0,0,239.37,83.76Z" transform="translate(-67.38 -4.82)"/><path class="cls-7" d="M158.09,114.42l.94,17,17-.94v0a72.12,72.12,0,0,0,12.92-1.9,72.12,72.12,0,0,0,.28-11.41h0l-1-18.38-18.38,1v0a71.27,71.27,0,0,0-11.31,1.53,72.43,72.43,0,0,0-.47,13Z" transform="translate(-67.38 -4.82)"/><path class="cls-8" d="M106.66,146.52a71.08,71.08,0,0,0-4.32,28.7l2.08,37.95a15.49,15.49,0,1,0,30.93-1.7l-.31-5.66-1.78-32.29L131,132.9H131A31.63,31.63,0,0,0,106.66,146.52Z" transform="translate(-67.38 -4.82)"/><path class="cls-9" d="M121.42,192.62a71.57,71.57,0,0,0,12.79-1.87l-.93-16.91L132.57,161l-12.85.7-16.91.93a72,72,0,0,0-.46,12.92l1,18.07Z" transform="translate(-67.38 -4.82)"/><path class="cls-10" d="M141.85,107.24a72.08,72.08,0,0,0-35.3,39.39A31.61,31.61,0,0,1,130.87,133,31.6,31.6,0,0,1,141.85,107.24Z" transform="translate(-67.38 -4.82)"/><path class="cls-11" d="M239.35,83.78a71.31,71.31,0,0,0,4.33-28.7l-2-35.62a15.49,15.49,0,0,0-30.93,1.7l.31,5.67,1.65,30L215,97.39h.07A31.61,31.61,0,0,0,239.35,83.78Z" transform="translate(-67.38 -4.82)"/><path class="cls-12" d="M227.37,69.87,243.08,69a71.55,71.55,0,0,0,.6-13.93L242.74,38l-17.07.93a71.6,71.6,0,0,0-13.78,2.12l.86,15.72.76,13.85Z" transform="translate(-67.38 -4.82)"/><path class="cls-13" d="M204.06,123.15a72.13,72.13,0,0,0,35.31-39.39,31.63,31.63,0,0,1-24.32,13.63A31.64,31.64,0,0,1,204.06,123.15Z" transform="translate(-67.38 -4.82)"/></g><text class="cls-14" transform="translate(195.29 94.33)">Genome<tspan class="cls-15"><tspan x="-99.35" y="78">Technologies</tspan></tspan></text><text class="cls-16" transform="translate(178.72 220.03)">Personalize Healthcare</text></svg>