<svg id="Layer_1" data-name="Layer 1" xmlns="http://www.w3.org/2000/svg" viewBox="0 0 98.59 61.26"><defs><style>.cls-1{fill:#fff;}</style></defs><path class="cls-1" d="M8.28,27.78a.92.92,0,0,1-.39-.09A13,13,0,0,1,.82,16.15V4a.84.84,0,0,1,.84-.84H5.11a.84.84,0,1,1,0,1.68H2.5V16.15a11.26,11.26,0,0,0,6.16,10,.84.84,0,0,1-.38,1.59Z" transform="translate(-0.82 -0.51)"/><path class="cls-1" d="M20.06,27.78a.84.84,0,0,1-.38-1.59,11.27,11.27,0,0,0,6.16-10V4.86H23.23a.84.84,0,1,1,0-1.68h3.45a.85.85,0,0,1,.85.84V16.15a13,13,0,0,1-7.08,11.54A.89.89,0,0,1,20.06,27.78Z" transform="translate(-0.82 -0.51)"/><path class="cls-1" d="M20.74,32.83H7.6A.84.84,0,0,1,6.75,32v-5a.84.84,0,0,1,.85-.84H20.74a.83.83,0,0,1,.84.84v5A.83.83,0,0,1,20.74,32.83ZM8.44,31.15H19.9V27.78H8.44Z" transform="translate(-0.82 -0.51)"/><path class="cls-1" d="M73.2,42.56H52.26a.84.84,0,0,1-.84-.84V11.78a6,6,0,0,0-12.09,0V30.29c0,6.87-5.22,10.07-10.11,10.78C22.75,42,14.88,39,12.9,32.23a.84.84,0,0,1,1.62-.48c1.72,5.85,8.7,8.48,14.46,7.65,5.42-.78,8.66-4.19,8.66-9.11V11.78a7.73,7.73,0,0,1,15.46,0V40.87H73.2a.85.85,0,0,1,0,1.69Z" transform="translate(-0.82 -0.51)"/><path class="cls-1" d="M7.94,7.88A3.69,3.69,0,1,1,11.63,4.2,3.68,3.68,0,0,1,7.94,7.88Zm0-5.68a2,2,0,1,0,2,2A2,2,0,0,0,7.94,2.2Z" transform="translate(-0.82 -0.51)"/><path class="cls-1" d="M20.39,7.88A3.69,3.69,0,1,1,24.08,4.2,3.68,3.68,0,0,1,20.39,7.88Zm0-5.68a2,2,0,1,0,2,2A2,2,0,0,0,20.39,2.2Z" transform="translate(-0.82 -0.51)"/><path class="cls-1" d="M78.63,48a6.28,6.28,0,1,1,6.29-6.27A6.27,6.27,0,0,1,78.63,48Zm0-10.87a4.6,4.6,0,1,0,4.6,4.6A4.6,4.6,0,0,0,78.63,37.12Z" transform="translate(-0.82 -0.51)"/><path class="cls-1" d="M80.21,61.77a.81.81,0,0,1-.59-.25C70.47,52.39,61,43,61,33.42a10,10,0,0,1,10-10c4.63,0,7.09,2.23,9.17,5.92,2.09-3.69,4.54-5.92,9.18-5.92a10,10,0,0,1,10,10c0,9.53-9.46,19-18.6,28.1A.83.83,0,0,1,80.21,61.77ZM71,25.09a8.35,8.35,0,0,0-8.34,8.33c0,8.63,8.8,17.61,17.51,26.32C88.93,51,97.72,42.05,97.72,33.42a8.34,8.34,0,0,0-8.33-8.33c-3.9,0-6,1.62-8.42,6.42a.86.86,0,0,1-.76.46.84.84,0,0,1-.75-.46C77.06,26.71,74.93,25.09,71,25.09Z" transform="translate(-0.82 -0.51)"/></svg>