<svg xmlns="http://www.w3.org/2000/svg" viewBox="0 0 357.33 378.99"><defs><style>.cls-1{fill:#25ac9b;}.cls-2{fill:#f04a8a;}.cls-3{fill:#2e3959;}.cls-4{fill:#287cbc;}.cls-5{fill:#075681;}.cls-6{fill:#e94b86;}.cls-7{fill:#2b3b5c;}.cls-8{fill:#ecb004;}.cls-9{fill:#ca2300;}.cls-10{fill:#c62101;}.cls-11{fill:#fe7702;}.cls-12{fill:#295c00;}.cls-13{fill:#b52a8f;}</style></defs><g id="Layer_2" data-name="Layer 2"><g id="Layer_1-2" data-name="Layer 1"><g id="DNA_molecule" data-name="DNA molecule"><path class="cls-1" d="M221.38,70.61a121.94,121.94,0,0,0-67.25,115.65h.05L158.39,263h0s0,.07,0,.11a53.74,53.74,0,0,1-18.5,43.63,122,122,0,0,0,67.26-115.66h0l-4.22-76.71h0s0-.07,0-.11A53.75,53.75,0,0,1,221.38,70.61Z"/><path class="cls-2" d="M140,306.68a121.23,121.23,0,0,1-47.68,12.65l-64.51,3.54a26.32,26.32,0,1,1-2.89-52.56l9.63-.53,54.88-3,69-3.79v.11A53.75,53.75,0,0,1,140,306.68Z"/><path class="cls-3" d="M199.87,239.73a122.52,122.52,0,0,1-60,67,53.74,53.74,0,0,0,18.5-43.63A53.76,53.76,0,0,0,199.87,239.73Z"/><path class="cls-4" d="M221.35,70.64A121.07,121.07,0,0,1,269,58l60.53-3.33a26.32,26.32,0,1,1,2.89,52.57l-9.63.53-50.9,2.79-69,3.8v-.11A53.72,53.72,0,0,1,221.35,70.64Z"/><path class="cls-5" d="M161.42,137.6a122.5,122.5,0,0,1,60-67,53.75,53.75,0,0,0-18.49,43.63A53.7,53.7,0,0,0,161.42,137.6Z"/><path class="cls-6" d="M292.32,134.15a122,122,0,0,1-107.59,79.53v-.05L108,217.85h-.11A53.69,53.69,0,0,0,66.57,241a122,122,0,0,1,107.58-79.53v0l76.71-4.21H251A53.72,53.72,0,0,0,292.32,134.15Z"/><path class="cls-7" d="M154.18,186.27l1.59,29,28.95-1.6v.05a121.5,121.5,0,0,0,22-3.22,121.46,121.46,0,0,0,.48-19.4h0l-1.72-31.23-31.23,1.71v0a123.8,123.8,0,0,0-19.23,2.6,121.77,121.77,0,0,0-.79,22.17Z"/><path class="cls-8" d="M66.76,240.83a121,121,0,0,0-7.35,48.78L63,354.12a26.32,26.32,0,0,0,52.56-2.89l-.53-9.64-3-54.87-3.8-69h-.11A53.75,53.75,0,0,0,66.76,240.83Z"/><path class="cls-9" d="M91.84,319.18A122.22,122.22,0,0,0,113.59,316L112,287.27l-1.2-21.85L89,266.62,60.22,268.2a121.27,121.27,0,0,0-.78,22l1.69,30.71Z"/><path class="cls-10" d="M126.57,174.07a122.56,122.56,0,0,0-60,67,53.69,53.69,0,0,1,41.33-23.16A53.79,53.79,0,0,1,126.57,174.07Z"/><path class="cls-11" d="M292.29,134.19a121,121,0,0,0,7.35-48.78l-3.33-60.53a26.32,26.32,0,1,0-52.56,2.89l.53,9.63,2.8,50.9,3.79,69H251A53.73,53.73,0,0,0,292.29,134.19Z"/><path class="cls-12" d="M271.92,110.55l26.71-1.46a122.38,122.38,0,0,0,1-23.68l-1.59-29L269,58a121.66,121.66,0,0,0-23.42,3.6l1.47,26.71,1.29,23.55Z"/><path class="cls-13" d="M232.31,201.1a122.48,122.48,0,0,0,60-66.95A53.72,53.72,0,0,1,251,157.32,53.73,53.73,0,0,1,232.31,201.1Z"/></g></g></g></svg>