<svg version="1.1" id="Layer_1" xmlns="http://www.w3.org/2000/svg" x="0" y="0" viewBox="0 0 410 351" xml:space="preserve">
  <style>
    .st0,.st1{fill:none;stroke:#652918;stroke-width:4;stroke-linecap:round;stroke-linejoin:round;stroke-miterlimit:10}.st1{fill:#acacac}.st3{fill:#652918}.st5,.st9{fill:#fff}.st9{stroke:#652918;stroke-width:1.0464;stroke-linecap:round;stroke-linejoin:round;stroke-miterlimit:10}.st10{fill:#acacac}.st11{fill:#6c7074}.st12{fill:none;stroke:#652918;stroke-width:2;stroke-linecap:round;stroke-linejoin:round;stroke-miterlimit:10}.st13{fill:#ea6026}.st15{fill:#c6c6c5}
  </style>
  <path class="st0" d="M176.49 238.92v90.34"/>
  <path class="st1" d="M191.76 337.62c-9.25 0-16.77-5.04-16.77-11.25 0-6.2 7.52-11.24 16.77-11.24 9.24 0 16.74 5.04 16.74 11.24.01 6.21-7.49 11.25-16.74 11.25z"/>
  <path class="st0" d="M159.74 238.92v90.34"/>
  <path class="st1" d="M144.46 337.62c9.26 0 16.76-5.04 16.76-11.25 0-6.2-7.49-11.24-16.76-11.24-9.26 0-16.75 5.04-16.75 11.24 0 6.21 7.49 11.25 16.75 11.25z"/>
  <path class="st0" d="M42.98 113.79c2.27 37.91 26.45 67.25 54.08 65.59"/>
  <path class="st1" d="M29.87 100.77c-.55-9.24 4.02-17.03 10.23-17.4 6.2-.37 11.66 6.82 12.21 16.06.55 9.23-4.01 17.02-10.21 17.39-6.2.36-11.67-6.83-12.23-16.05z"/>
  <g>
    <path class="st0" d="M294.9 98.7c2.27 37.91-18.23 69.92-45.85 71.58"/>
    <path class="st1" d="M306.36 84.2c-.55-9.24-6.04-16.43-12.22-16.06-6.19.37-10.77 8.16-10.22 17.4.55 9.23 6.03 16.42 12.22 16.05 6.19-.37 10.77-8.16 10.22-17.39z"/>
  </g>
  <g>
    <path d="M94.32 251.37c-11.77 0-21.35-9.58-21.35-21.35V30.41c0-11.76 9.58-21.34 21.35-21.34H241.9c11.78 0 21.36 9.57 21.36 21.34v199.62c0 11.77-9.58 21.35-21.36 21.35H94.32z" fill="#ececec"/>
    <path class="st3" d="M241.9 11.46c10.47 0 18.97 8.48 18.97 18.95v199.62c0 10.48-8.5 18.96-18.97 18.96H94.32c-10.47 0-18.96-8.48-18.96-18.96V30.41c0-10.46 8.49-18.95 18.96-18.95H241.9m0-4.78H94.32c-13.09 0-23.74 10.64-23.74 23.72v199.62c0 13.09 10.65 23.74 23.74 23.74H241.9c13.1 0 23.75-10.65 23.75-23.74V30.41c0-13.09-10.66-23.73-23.75-23.73z"/>
  </g>
  <path d="M241.9 11.46h-39.35c24.35 20.56 40.02 51.19 40.02 84.95 0 60.7-50.67 111.35-111.37 111.35-20.22 0-39.34-5.63-55.84-15.39v37.66c0 10.48 8.49 18.96 18.96 18.96H241.9c10.47 0 18.97-8.48 18.97-18.96V30.41c0-10.47-8.5-18.95-18.97-18.95z" fill="#cac9c9"/>
  <g>
    <path class="st3" d="M139.23 162.7c0 8.44-6.85 15.3-15.31 15.3-8.45 0-15.31-6.86-15.31-15.3 0-8.46 6.86-15.32 15.31-15.32 8.45.01 15.31 6.87 15.31 15.32z"/>
    <path class="st5" d="M126.43 158.17c0 3.99-3.23 7.22-7.23 7.22-3.98 0-7.21-3.23-7.21-7.22 0-3.99 3.23-7.22 7.21-7.22 3.99 0 7.23 3.23 7.23 7.22zM129.68 166.07c0 1.37-1.1 2.49-2.49 2.49a2.499 2.499 0 110-5c1.39.01 2.49 1.12 2.49 2.51z"/>
    <g>
      <path class="st3" d="M227.61 162.7c0 8.44-6.85 15.3-15.3 15.3-8.46 0-15.3-6.86-15.3-15.3 0-8.46 6.85-15.32 15.3-15.32 8.45.01 15.3 6.87 15.3 15.32z"/>
      <path class="st5" d="M214.81 158.17c0 3.99-3.24 7.22-7.23 7.22-3.97 0-7.22-3.23-7.22-7.22 0-3.99 3.24-7.22 7.22-7.22 3.99 0 7.23 3.23 7.23 7.22zM218.09 166.07c0 1.37-1.12 2.49-2.49 2.49-1.41 0-2.51-1.12-2.51-2.49 0-1.39 1.1-2.51 2.51-2.51 1.36.01 2.49 1.12 2.49 2.51z"/>
    </g>
    <path class="st0" d="M202.49 214.32s-13.23-15.45-37.69-15.45c-21.45 0-35.11 15.45-35.11 15.45"/>
  </g>
  <g>
    <path fill="#acacac" stroke="#652918" stroke-width="1.046" stroke-linecap="round" stroke-linejoin="round" stroke-miterlimit="10" d="M292.97 11.51v32.81h4.37V11.51h1.17l.88-10.65h-8.9l1.31 10.65z"/>
    <path d="M292.97 87.99c-3.98 0-7.22-3.24-7.22-7.22V50.43c0-3.98 3.24-7.22 7.22-7.22h4.37c3.98 0 7.22 3.24 7.22 7.22v30.34c0 3.98-3.24 7.22-7.22 7.22h-4.37z" fill="#ffe419"/>
    <path class="st3" d="M297.34 43.83c3.65 0 6.6 2.95 6.6 6.6v30.34a6.6 6.6 0 01-6.6 6.6h-4.37a6.6 6.6 0 01-6.6-6.6V50.43a6.6 6.6 0 016.6-6.6h4.37m0-1.25h-4.37c-4.33 0-7.85 3.52-7.85 7.85v30.34c0 4.33 3.52 7.85 7.85 7.85h4.37c4.33 0 7.85-3.52 7.85-7.85V50.43c0-4.33-3.52-7.85-7.85-7.85z"/>
    <path d="M292.97 87.37h4.37c.96 0 1.87-.21 2.7-.58-6.57-2.39-11.36-8.75-11.36-16.07 0-8.69 6.78-16.05 15.26-16.98v-3.32a6.6 6.6 0 00-6.6-6.6h-4.37a6.6 6.6 0 00-6.6 6.6v30.34c0 3.65 2.96 6.61 6.6 6.61z" fill="#cfa41d"/>
    <g>
      <path class="st9" d="M299.51 83.3V48.29M295.16 83.85v-36.5M290.8 83.3V48.29"/>
    </g>
  </g>
  <g>
    <path class="st3" d="M112.13 81.81l17.83-42.18h10.71v42.18h4.63v8.92h-4.63v11.32h-9.81V90.73h-18.74v-8.92zm18.74 0v-23.1l-9.73 23.1h9.73zM148.96 54.61c0-9.98 5.27-15.69 14.9-15.69s14.9 5.71 14.9 15.69v32.47c0 10-5.27 15.7-14.9 15.7s-14.9-5.71-14.9-15.7V54.61zm9.81 33.08c0 4.46 1.97 6.15 5.09 6.15 3.11 0 5.07-1.69 5.07-6.15v-33.7c0-4.46-1.96-6.16-5.07-6.16-3.12 0-5.09 1.7-5.09 6.16v33.7zM182.77 81.81l17.84-42.18h10.7v42.18h4.65v8.92h-4.65v11.32h-9.81V90.73h-18.73v-8.92zm18.72 0v-23.1l-9.72 23.1h9.72z"/>
    <g>
      <path class="st3" d="M132.35 120.34H138v3.75h-5.65v7.67h7.12v3.75h-11.24v-26.24h11.24v3.75h-7.12v7.32zM150.65 135.52c-.22-.68-.38-1.09-.38-3.23v-4.12c0-2.43-.82-3.33-2.69-3.33h-1.44v10.68h-4.11v-26.24h6.22c4.27 0 6.12 1.99 6.12 6.04v2.07c0 2.69-.87 4.44-2.71 5.31 2.06.87 2.74 2.84 2.74 5.58v4.04c0 1.28.02 2.23.44 3.2h-4.19zm-4.51-22.49v8.06h1.62c1.54 0 2.47-.67 2.47-2.78v-2.58c0-1.87-.63-2.7-2.1-2.7h-1.99zM165.72 135.52c-.22-.68-.38-1.09-.38-3.23v-4.12c0-2.43-.83-3.33-2.7-3.33h-1.42v10.68h-4.12v-26.24h6.22c4.27 0 6.11 1.99 6.11 6.04v2.07c0 2.69-.86 4.44-2.69 5.31 2.06.87 2.74 2.84 2.74 5.58v4.04c0 1.28.02 2.23.44 3.2h-4.2zm-4.5-22.49v8.06h1.61c1.55 0 2.47-.67 2.47-2.78v-2.58c0-1.87-.63-2.7-2.08-2.7h-2zM171.84 115.59c0-4.21 2.2-6.61 6.26-6.61 4.05 0 6.25 2.4 6.25 6.61v13.64c0 4.2-2.2 6.59-6.25 6.59-4.06 0-6.26-2.4-6.26-6.59v-13.64zm4.13 13.89c0 1.87.82 2.58 2.13 2.58s2.14-.71 2.14-2.58v-14.17c0-1.87-.83-2.58-2.14-2.58-1.32 0-2.13.71-2.13 2.58v14.17zM195.65 135.52c-.23-.68-.39-1.09-.39-3.23v-4.12c0-2.43-.82-3.33-2.69-3.33h-1.43v10.68h-4.13v-26.24h6.23c4.27 0 6.11 1.99 6.11 6.04v2.07c0 2.69-.87 4.44-2.71 5.31 2.07.87 2.74 2.84 2.74 5.58v4.04c0 1.28.04 2.23.45 3.2h-4.18zm-4.5-22.49v8.06h1.6c1.55 0 2.48-.67 2.48-2.78v-2.58c0-1.87-.63-2.7-2.1-2.7h-1.98z"/>
    </g>
  </g>
  <g>
    <path class="st10" d="M25.7 109.66c-.08 0-.15-.01-.23-.02-.31-.06-.59-.24-.76-.5L17.6 98.58a1.2 1.2 0 01.32-1.66l37.59-25.31c.2-.13.43-.2.67-.2.08 0 .15.01.23.02.31.06.59.24.76.5l7.11 10.56a1.2 1.2 0 01-.32 1.66l-37.59 25.31c-.2.13-.43.2-.67.2z"/>
    <path class="st3" d="M56.18 72.6l7.11 10.56-37.59 25.31-7.11-10.56L56.18 72.6m0-2.39c-.47 0-.94.14-1.33.41L17.26 95.93a2.394 2.394 0 00-.65 3.31l7.11 10.56a2.353 2.353 0 001.98 1.05c.47 0 .94-.14 1.33-.41l37.59-25.31c1.09-.74 1.38-2.22.65-3.31l-7.11-10.56c-.35-.53-.9-.89-1.52-1.01-.16-.02-.31-.04-.46-.04z"/>
    <path class="st11" d="M60.24 78.63c-4.95-.9-10.24.01-14.67 2.99-6.41 4.32-9.49 11.94-8.54 19.21l-11.34 7.63-7.11-10.56 37.6-25.3 4.06 6.03z"/>
    <path class="st10" d="M65.72 88.23c-4.8 0-9.26-2.37-11.93-6.35A14.315 14.315 0 0151.6 71.1c.74-3.77 2.9-7.03 6.08-9.17 2.38-1.6 5.15-2.45 8.01-2.45 2.45 0 4.88.63 7.02 1.82.36.2.6.58.61.99.02.42-.18.81-.53 1.04l-10.13 6.82c-.36.24-.6.61-.69 1.04-.08.43 0 .86.25 1.22l3.51 5.22c.3.45.81.72 1.35.72.32 0 .63-.1.9-.28l10.12-6.82c.2-.13.43-.2.67-.2.17 0 .34.04.5.11.38.17.64.53.69.94a14.29 14.29 0 01-6.23 13.68 14.29 14.29 0 01-8.01 2.45z"/>
    <path class="st3" d="M65.69 60.67c2.24 0 4.46.57 6.44 1.67L62 69.16a2.816 2.816 0 00-.76 3.91l3.51 5.22c.54.81 1.43 1.25 2.34 1.25.54 0 1.09-.16 1.57-.48l10.12-6.82a13.176 13.176 0 01-13.06 14.8c-4.24 0-8.4-2.04-10.94-5.82-4.07-6.04-2.47-14.23 3.57-18.3 2.26-1.52 4.81-2.25 7.34-2.25m0-2.38c-3.1 0-6.1.92-8.67 2.65a15.479 15.479 0 00-6.59 9.93c-.8 4.08.04 8.23 2.37 11.68a15.564 15.564 0 0021.61 4.21c4.88-3.29 7.47-8.97 6.75-14.82-.1-.82-.62-1.54-1.38-1.88-.32-.14-.65-.22-.99-.22-.47 0-.93.14-1.33.41l-10.12 6.82c-.07.05-.15.07-.24.07-.07 0-.24-.02-.36-.19l-3.51-5.22a.458.458 0 01-.07-.32c.02-.08.06-.19.18-.27l10.13-6.82c.69-.46 1.09-1.25 1.05-2.08-.03-.83-.5-1.58-1.23-1.99a15.753 15.753 0 00-7.6-1.96z"/>
    <path class="st11" d="M65.47 60.68c-7.19 6.46-8.79 17.64-3.3 25.86-2.91-.81-5.57-2.62-7.39-5.33-4.07-6.04-2.47-14.23 3.57-18.3 2.19-1.46 4.66-2.18 7.12-2.23z"/>
    <path class="st10" d="M16.5 121.38c-2.45 0-4.87-.63-7.01-1.82-.36-.2-.59-.58-.61-.99-.02-.42.18-.81.53-1.04l10.12-6.82c.36-.24.6-.61.69-1.04.08-.43 0-.86-.25-1.22l-3.51-5.22c-.3-.45-.81-.72-1.35-.72-.32 0-.63.1-.9.28l-10.12 6.82c-.2.13-.43.2-.67.2-.17 0-.34-.04-.5-.11-.38-.17-.64-.53-.69-.94-.66-5.4 1.73-10.65 6.24-13.68 2.38-1.6 5.15-2.45 8.01-2.45 4.8 0 9.26 2.37 11.94 6.35 4.42 6.57 2.68 15.52-3.89 19.95-2.41 1.6-5.18 2.45-8.03 2.45z"/>
    <path class="st3" d="M16.46 93.82c4.24 0 8.4 2.04 10.95 5.82 4.07 6.04 2.47 14.22-3.57 18.29a13.104 13.104 0 01-7.34 2.25c-2.24 0-4.46-.57-6.43-1.67l10.12-6.82c1.29-.87 1.63-2.62.76-3.91l-3.51-5.22a2.819 2.819 0 00-2.34-1.25c-.54 0-1.09.16-1.57.48L3.4 108.62c-.59-4.77 1.46-9.68 5.72-12.55a13.08 13.08 0 017.34-2.25m.01-2.39c-3.1 0-6.1.92-8.68 2.66-4.89 3.29-7.47 8.97-6.75 14.82.1.82.62 1.54 1.38 1.88.32.14.65.22.99.22.47 0 .93-.14 1.33-.41l10.12-6.82c.07-.05.15-.07.24-.07.07 0 .24.02.36.19l3.51 5.22c.08.12.08.24.07.32-.02.08-.06.19-.18.28l-10.12 6.82c-.69.46-1.09 1.25-1.05 2.08.03.83.5 1.58 1.23 1.99 2.32 1.29 4.94 1.97 7.59 1.97 3.1 0 6.1-.92 8.68-2.65 7.12-4.8 9.01-14.49 4.22-21.61a15.595 15.595 0 00-12.94-6.89z"/>
    <path class="st11" d="M17.1 120.17c-2.44.11-4.89-.45-7.04-1.65l4.83-3.25c.49 1.7 1.23 3.35 2.21 4.9zM20.85 94.57a19.665 19.665 0 00-5.02 6.85c-.76-.21-1.6-.09-2.31.38L3.4 108.62c-.59-4.77 1.46-9.68 5.72-12.55 3.59-2.42 7.94-2.83 11.73-1.5z"/>
    <g>
      <path class="st12" d="M51.73 85.6L33.04 98.18M49.57 82.4L30.89 94.98"/>
    </g>
  </g>
  <g>
    <path class="st13" d="M213.92 329.08c-.85 0-1.64-.46-2.07-1.19-.43-.74-.43-1.65 0-2.39l81.24-140.72a2.38 2.38 0 012.07-1.19c.85 0 1.64.46 2.07 1.19l40.63 70.36 40.62 70.36c.43.74.43 1.65 0 2.39a2.38 2.38 0 01-2.07 1.19H213.92z"/>
    <path class="st3" d="M295.15 185.97l40.63 70.36 40.62 70.36H213.92l40.62-70.36 40.61-70.36m0-4.78c-1.71 0-3.28.91-4.14 2.39l-40.62 70.36-40.62 70.36c-.85 1.48-.85 3.3 0 4.78a4.771 4.771 0 004.14 2.39h162.48c1.71 0 3.28-.91 4.14-2.39.85-1.48.85-3.3 0-4.78l-40.62-70.36-40.63-70.36a4.743 4.743 0 00-4.13-2.39z"/>
    <path d="M335.78 256.33l-8.86-15.35c-2.02 33.57-30.58 60.93-64.59 60.93-10.7 0-20.84-2.71-29.81-7.46l-18.61 32.24H376.4l-40.62-70.36z" fill="#af4420"/>
    <path class="st13" d="M185.11 349.28a2.39 2.39 0 01-2.39-2.39v-31.75a2.39 2.39 0 012.39-2.39H405.2a2.39 2.39 0 012.39 2.39v31.75a2.39 2.39 0 01-2.39 2.39H185.11z"/>
    <path class="st3" d="M405.2 315.14v31.75H185.11v-31.75H405.2m0-4.77H185.11a4.78 4.78 0 00-4.78 4.78v31.75a4.78 4.78 0 004.78 4.78H405.2a4.78 4.78 0 004.78-4.78v-31.75c0-2.65-2.14-4.78-4.78-4.78z"/>
    <path class="st5" d="M214.34 328.35c-.85 0-1.64-.46-2.07-1.19-.43-.74-.43-1.65 0-2.39l20.21-35a2.38 2.38 0 012.07-1.19h121.23c.85 0 1.64.46 2.07 1.19l20.2 35c.43.74.43 1.65 0 2.39a2.38 2.38 0 01-2.07 1.19H214.34z"/>
    <path class="st3" d="M355.78 290.97l20.2 35H214.34l20.21-35h121.23m0-4.78H234.54c-1.71 0-3.28.91-4.14 2.39l-20.2 35c-.85 1.48-.85 3.3 0 4.78a4.771 4.771 0 004.14 2.39h161.64c1.71 0 3.28-.91 4.14-2.39.85-1.48.85-3.3 0-4.78l-20.2-35a4.795 4.795 0 00-4.14-2.39z"/>
    <g>
      <path class="st15" d="M216.46 322.28l-2.12 3.68h161.64l-3.68-6.38-16.53-28.62h-57.83c-10.27 6.89-22.53 10.95-35.61 10.95-10.69 0-20.84-2.71-29.8-7.46l-16.07 27.83z"/>
    </g>
    <g>
      <path class="st5" d="M254.75 258.35c-.85 0-1.64-.46-2.07-1.19-.43-.74-.43-1.65 0-2.39l20.2-34.99a2.38 2.38 0 012.07-1.19h40.42c.85 0 1.64.46 2.07 1.19l20.2 34.99c.43.74.43 1.65 0 2.39a2.38 2.38 0 01-2.07 1.19h-80.82z"/>
      <path class="st3" d="M315.37 220.97l20.2 34.99h-80.82l20.2-34.99h40.42m0-4.78h-40.42c-1.71 0-3.28.91-4.14 2.39l-20.2 34.99c-.85 1.48-.85 3.3 0 4.78a4.771 4.771 0 004.14 2.39h80.82c1.71 0 3.28-.91 4.14-2.39.85-1.48.85-3.3 0-4.78l-20.2-34.99a4.783 4.783 0 00-4.14-2.39z"/>
    </g>
    <g>
      <path class="st15" d="M335.57 255.96l-4.75-8.21-3.91-6.77a62.632 62.632 0 01-2.75 14.98h11.41z"/>
    </g>
  </g>
</svg>
